<svg width="42" height="45" viewBox="0 0 42 45" fill="none" xmlns="http://www.w3.org/2000/svg">
<path fill-rule="evenodd" clip-rule="evenodd" d="M12.7485 15.4739C12.384 15.6983 11.6974 17.1071 12.008 18.3431C12.47 20.1813 14.1133 20.8987 14.1133 20.8987C14.1133 20.8987 16.6841 24.2932 16.6841 26.2672C16.6841 28.2413 16.6841 29.0082 15.9952 30.6551C15.3062 32.3019 1.78262 34.2761 1.2085 43.9848H20.8921L40.7918 43.9869C40.2177 34.2782 26.6941 32.304 26.0052 30.6572C25.3162 29.0103 25.3162 28.2434 25.3162 26.2693C25.3162 24.2953 27.887 20.9009 27.887 20.9009C27.887 20.9009 29.5303 20.1834 29.9923 18.3452C30.303 17.1092 29.6163 15.7004 29.2518 15.476C30.2261 12.5032 32.172 2.25444 21.1082 1.88506C21.059 1.87807 21.0101 1.87932 20.9614 1.88076C9.82834 2.25232 11.7742 12.5011 12.7485 15.4739Z" stroke="#1F2B6C" stroke-width="2" stroke-linecap="round" stroke-linejoin="round"/>
</svg>
